<svg width="120" height="23" viewBox="0 0 120 23" fill="none" xmlns="http://www.w3.org/2000/svg">
<g clip-path="url(#clip0)">
<path d="M11.2649 1.36992e-06C9.03779 -0.00108636 6.86037 0.645599 5.00805 1.85826C3.15573 3.07093 1.71173 4.7951 0.858678 6.81269C0.0056288 8.83028 -0.218143 11.0507 0.215666 13.193C0.649475 15.3353 1.72138 17.3034 3.29579 18.8482C4.87021 20.393 6.87641 21.4452 9.06065 21.8717C11.2449 22.2982 13.509 22.0799 15.5667 21.2443C17.6244 20.4087 19.3832 18.9934 20.6207 17.1774C21.8581 15.3614 22.5186 13.2263 22.5186 11.0421C22.5186 8.11359 21.3323 5.30498 19.2208 3.23417C17.1093 1.16337 14.2454 1.36992e-06 11.2593 1.36992e-06H11.2649ZM11.2649 19.2908C9.6014 19.2908 7.97525 18.807 6.5921 17.9006C5.20894 16.9943 4.13091 15.706 3.49431 14.1988C2.85772 12.6915 2.69116 11.033 3.01569 9.43292C3.34022 7.83285 4.14128 6.36309 5.31755 5.2095C6.49382 4.05591 7.99249 3.2703 9.62403 2.95203C11.2556 2.63375 12.9467 2.7971 14.4836 3.42142C16.0205 4.04574 17.3341 5.10298 18.2582 6.45946C19.1824 7.81594 19.6757 9.41073 19.6757 11.0421C19.6757 12.1254 19.4582 13.198 19.0355 14.1988C18.6128 15.1995 17.9933 16.1088 17.2122 16.8748C16.4312 17.6408 15.504 18.2483 14.4836 18.6629C13.4631 19.0774 12.3694 19.2908 11.2649 19.2908Z" fill="black"/>
<path d="M15.9637 11.0421C15.9648 11.9546 15.69 12.8469 15.174 13.6063C14.658 14.3656 13.924 14.9578 13.0648 15.308C12.2056 15.6582 11.2598 15.7507 10.347 15.5737C9.43418 15.3968 8.59539 14.9583 7.93668 14.3139C7.27797 13.6694 6.82891 12.8478 6.6463 11.9531C6.46369 11.0583 6.55573 10.1305 6.91077 9.28706C7.26582 8.4436 7.86792 7.72233 8.64095 7.21446C9.41397 6.70659 10.3232 6.43494 11.2537 6.43385C11.87 6.43241 12.4806 6.55003 13.0505 6.78C13.6205 7.00997 14.1387 7.3478 14.5756 7.77418C15.0124 8.20056 15.3593 8.70715 15.5966 9.26503C15.8338 9.82291 15.9566 10.4211 15.9581 11.0256" fill="black"/>
<path d="M30.9967 16.8437C29.8968 16.8442 28.8022 16.6943 27.7445 16.3983C27.5875 16.3543 27.4417 16.2608 27.4417 16.1068V14.8915C27.4429 14.8217 27.4705 14.7549 27.5193 14.7041C27.568 14.6532 27.6343 14.622 27.7053 14.6166H27.7613C28.8828 14.71 30.0379 14.754 30.8901 14.754C32.0116 14.754 32.4433 14.2921 32.4433 13.4453V13.1648C32.4433 12.4719 32.1966 11.8395 31.1705 11.8395H28.4062C28.3258 11.8395 28.2488 11.8082 28.192 11.7525C28.1353 11.6969 28.1034 11.6213 28.1034 11.5426V10.2118C28.1019 10.1742 28.1079 10.1368 28.1212 10.1015C28.1345 10.0662 28.1547 10.0339 28.1808 10.0063C28.2068 9.97873 28.2381 9.95646 28.273 9.94076C28.3078 9.92507 28.3454 9.91626 28.3837 9.91484H31.1032C31.2652 9.9307 31.4287 9.91468 31.5843 9.86771C31.7399 9.82074 31.8843 9.74378 32.0091 9.64134C32.134 9.5389 32.2367 9.41303 32.3112 9.27114C32.3858 9.12924 32.4307 8.97417 32.4433 8.81503C32.4545 8.72739 32.4545 8.63871 32.4433 8.55107V8.33111C32.4433 7.63822 32.1125 7.1763 30.8845 7.1763C29.8502 7.18179 28.817 7.24237 27.7894 7.35777H27.7557C27.6924 7.35935 27.6304 7.33941 27.5803 7.30133C27.5303 7.26325 27.4952 7.20937 27.481 7.14881V5.87302C27.481 5.71905 27.638 5.63106 27.795 5.58157C28.837 5.27184 29.9191 5.11072 31.0079 5.10315C33.5704 5.10315 35.1124 5.95001 35.1124 8.26512V8.48508C35.0958 8.96132 34.9591 9.4261 34.7145 9.83781C34.4698 10.2495 34.1249 10.5953 33.7106 10.8442C34.139 11.066 34.4966 11.3996 34.744 11.8081C34.9913 12.2166 35.1188 12.6842 35.1124 13.1593V13.4398C35.1124 15.7989 33.4302 16.8492 31.0079 16.8492" fill="black"/>
<path d="M43.798 16.7008H38.987V18.246C38.9877 18.2864 38.9804 18.3266 38.9653 18.3643C38.9502 18.4019 38.9276 18.4363 38.899 18.4654C38.8704 18.4945 38.8362 18.5178 38.7983 18.5339C38.7605 18.5501 38.7198 18.5587 38.6786 18.5594H36.8731C36.7888 18.558 36.7083 18.5246 36.6487 18.4661C36.589 18.4076 36.5549 18.3287 36.5535 18.246V14.8916C36.5549 14.8094 36.5893 14.7311 36.649 14.6735C36.7088 14.6159 36.7893 14.5836 36.8731 14.5836H37.6749L39.1216 9.08453C39.4188 7.91323 40.4897 7.66577 41.3981 7.66577C42.3065 7.66577 43.3326 7.86924 43.641 9.08453L45.1045 14.5836H45.9119C45.9952 14.5836 46.0751 14.6161 46.1339 14.6738C46.1928 14.7316 46.2259 14.8099 46.2259 14.8916V18.2405C46.2259 18.2809 46.2178 18.321 46.202 18.3583C46.1862 18.3957 46.1631 18.4297 46.1339 18.4583C46.1048 18.4868 46.0702 18.5095 46.0321 18.525C45.994 18.5405 45.9531 18.5484 45.9119 18.5484H44.1288C44.0876 18.5484 44.0467 18.5405 44.0086 18.525C43.9706 18.5095 43.9359 18.4868 43.9068 18.4583C43.8776 18.4297 43.8545 18.3957 43.8387 18.3583C43.8229 18.321 43.8148 18.2809 43.8148 18.2405L43.798 16.7008ZM40.2318 14.6056H42.542L41.4205 9.94239C41.4205 9.8819 41.3869 9.84891 41.3532 9.84891C41.3196 9.84891 41.3084 9.8819 41.2916 9.94239L40.2318 14.6056Z" fill="black"/>
<path d="M54.4969 13.3176H49.4896V13.3506C49.4896 14.236 49.8709 15.0333 51.1101 15.0333C52.1026 15.0333 53.5044 14.9563 54.1324 14.8958H54.1772C54.3511 14.8958 54.4744 14.9728 54.4744 15.1378V16.3091C54.4744 16.5566 54.4127 16.6665 54.1436 16.727C53.093 16.9943 52.0102 17.1201 50.9251 17.101C49.0242 17.101 47 16.1111 47 13.1251V12.0528C47 9.57274 48.4803 8 50.9811 8C53.4819 8 54.8669 9.72671 54.8669 12.0528V12.9492C54.8764 13.0365 54.8507 13.124 54.7951 13.1929C54.7395 13.2618 54.6586 13.3066 54.5697 13.3176H54.5361H54.4969ZM52.3493 11.7174C52.3493 10.5736 51.7886 10.0017 50.9307 10.0017C50.0728 10.0017 49.4896 10.5901 49.4896 11.7174V11.8054H52.3493V11.7174Z" fill="black"/>
<path d="M62.4644 16.6128C61.7788 16.7682 61.0766 16.8421 60.3729 16.8327C58.13 16.8327 56.7058 15.4415 56.7058 12.9284V11.6416C56.7058 9.12852 58.1525 7.74275 60.3729 7.74275C61.077 7.73679 61.7793 7.81434 62.4644 7.97371C62.6999 8.0342 62.7952 8.09469 62.7952 8.32565V9.70042C62.7909 9.77385 62.7573 9.84266 62.7017 9.89203C62.6461 9.94141 62.573 9.96739 62.4981 9.96438H62.4644C61.8284 9.88649 61.1877 9.84975 60.5468 9.8544C59.8346 9.8544 59.2571 10.2723 59.2571 11.6416V12.9394C59.2571 14.3141 59.8178 14.7321 60.5468 14.7321C61.1877 14.734 61.8281 14.6972 62.4644 14.6221C62.5005 14.614 62.5379 14.613 62.5744 14.6191C62.6109 14.6252 62.6458 14.6384 62.677 14.6578C62.7083 14.6772 62.7354 14.7026 62.7566 14.7323C62.7779 14.762 62.7929 14.7956 62.8009 14.8311C62.8039 14.8511 62.8039 14.8715 62.8009 14.8916V16.2663C62.8009 16.4863 62.7055 16.5578 62.47 16.6238" fill="black"/>
<path d="M71.8228 13.8302C71.8228 16.3158 69.95 16.8107 67.6735 16.8107C66.7344 16.8118 65.7968 16.7382 64.8698 16.5907C64.511 16.5303 64.4605 16.3598 64.4605 15.9584V8.18816C64.4526 8.11105 64.4757 8.03395 64.5249 7.97333C64.5742 7.91271 64.6456 7.87337 64.7241 7.86371H66.681C66.756 7.85599 66.8311 7.87767 66.8899 7.92402C66.9488 7.97037 66.9865 8.03764 66.995 8.11117C67.0006 8.13654 67.0006 8.16279 66.995 8.18816V10.7507H67.6566C69.9332 10.7507 71.806 11.2621 71.806 13.7257L71.8228 13.8302ZM67.0118 12.5984V14.8915H67.6735C68.9743 14.8915 69.3556 14.5671 69.3556 13.8247V13.7037C69.3556 12.9669 68.9911 12.6039 67.6735 12.6039H67.0118" fill="black"/>
<path d="M81.585 7.48974C81.557 7.33577 81.5233 7.26978 81.3831 7.26978C81.243 7.26978 81.1925 7.34677 81.1589 7.48974L79.1907 16.3872C79.1803 16.4627 79.1431 16.5321 79.0857 16.5834C79.0283 16.6347 78.9543 16.6645 78.8767 16.6677H76.6731C76.6407 16.6707 76.6079 16.6674 76.5768 16.658C76.5457 16.6485 76.5168 16.6332 76.4918 16.6127C76.4668 16.5923 76.4461 16.5672 76.431 16.5388C76.416 16.5105 76.4067 16.4796 76.4039 16.4477C76.4095 16.4224 76.4095 16.3961 76.4039 16.3708L78.7534 6.80786C79.1178 5.32861 80.2841 5.10864 81.3663 5.10864C82.4485 5.10864 83.6092 5.32861 83.9625 6.81886L86.3063 16.3708V16.4422C86.3078 16.4733 86.303 16.5043 86.2923 16.5336C86.2816 16.5629 86.265 16.5898 86.2437 16.6127C86.2223 16.6357 86.1966 16.6544 86.1678 16.6676C86.1391 16.6808 86.1081 16.6883 86.0764 16.6897H83.8335C83.7568 16.6867 83.6834 16.6577 83.6262 16.6075C83.5689 16.5574 83.5312 16.4892 83.5195 16.4147L81.585 7.48974Z" fill="black"/>
<path d="M94.8125 13.0274H89.766V13.0604C89.766 13.9402 90.1416 14.7431 91.3864 14.7431C92.3733 14.7431 93.7751 14.6606 94.4031 14.6001H94.4536C94.6274 14.6001 94.7508 14.6771 94.7508 14.8476V16.0189C94.7508 16.2663 94.6891 16.3763 94.42 16.4368C93.3672 16.702 92.2826 16.8259 91.1958 16.8052C89.295 16.8052 87.2708 15.8209 87.2708 12.8349V11.7351C87.2708 9.25499 88.7511 7.67676 91.2519 7.67676C93.7527 7.67676 95.1321 9.40897 95.1321 11.7351V12.6479C95.1433 12.7324 95.1202 12.8178 95.0677 12.8857C95.0153 12.9536 94.9377 12.9986 94.8517 13.0109H94.8069L94.8125 13.0274ZM92.6481 11.4051C92.6481 10.2668 92.1154 9.69492 91.2351 9.69492C90.3547 9.69492 89.7884 10.2833 89.7884 11.4051V11.4766H92.6481V11.4051Z" fill="black"/>
<path d="M100.066 9.89826C99.3711 9.89826 99.3711 10.2227 99.3711 10.6846V16.3487C99.3711 16.4303 99.338 16.5087 99.2791 16.5664C99.2203 16.6242 99.1404 16.6566 99.0571 16.6566H97.1394C97.0562 16.6566 96.9763 16.6242 96.9174 16.5664C96.8585 16.5087 96.8254 16.4303 96.8254 16.3487V10.6956C96.8254 9.17238 97.3862 7.82511 100.05 7.82511H101.956C102.037 7.81901 102.117 7.84446 102.179 7.89593C102.241 7.94741 102.28 8.02075 102.287 8.10006V9.60131C102.292 9.67687 102.266 9.75126 102.216 9.80873C102.166 9.8662 102.095 9.90226 102.018 9.90926L100.066 9.89826Z" fill="black"/>
<path d="M111.399 8.15513L108.472 12.054L111.382 16.3433C111.395 16.3601 111.405 16.3796 111.411 16.4004C111.417 16.4212 111.418 16.4429 111.415 16.4642C111.416 16.4895 111.412 16.5147 111.403 16.5383C111.393 16.562 111.38 16.5836 111.362 16.602C111.344 16.6204 111.323 16.6351 111.299 16.6455C111.276 16.6558 111.251 16.6615 111.225 16.6622H108.836C108.755 16.6714 108.674 16.655 108.603 16.6154C108.532 16.5759 108.477 16.5152 108.444 16.4422L106.201 12.8293V16.3433C106.202 16.4255 106.171 16.505 106.113 16.5646C106.055 16.6243 105.976 16.6593 105.892 16.6622H103.986C103.9 16.6595 103.818 16.6252 103.757 16.5661C103.696 16.507 103.659 16.4275 103.655 16.3433V8.13864C103.661 8.05594 103.698 7.97835 103.759 7.92129C103.82 7.86423 103.901 7.83189 103.986 7.83069H105.892C105.975 7.83213 106.053 7.86521 106.111 7.92281C106.168 7.9804 106.201 8.05791 106.201 8.13864V11.5921L108.595 8.06165C108.639 7.994 108.699 7.93834 108.771 7.89986C108.842 7.86139 108.923 7.84137 109.004 7.84169H111.247C111.393 7.84169 111.488 7.91867 111.488 8.01216C111.483 8.0691 111.459 8.12292 111.421 8.16613" fill="black"/>
<path d="M116.075 16.8052C113.524 16.8052 112.15 15.249 112.15 12.8074V11.7076C112.15 9.25498 113.552 7.69324 116.075 7.69324C118.598 7.69324 120 9.26597 120 11.7076V12.8074C120 15.26 118.615 16.8162 116.075 16.8162V16.8052ZM117.471 11.7406C117.471 10.4923 116.983 9.85437 116.075 9.85437C115.167 9.85437 114.656 10.4923 114.656 11.7406V12.8074C114.656 14.0557 115.161 14.7046 116.075 14.7046C116.989 14.7046 117.471 14.0557 117.471 12.8074V11.7406Z" fill="black"/>
</g>
<defs>
<clipPath id="clip0">
<rect width="120" height="22.0843" fill="white"/>
</clipPath>
</defs>
</svg>
