<svg width="21" height="22" viewBox="0 0 21 22" fill="none" xmlns="http://www.w3.org/2000/svg">
<path d="M20.3848 15.4727C20.7949 15.6367 21 15.9375 21 16.375C21 16.457 20.9863 16.5254 20.959 16.5801L19.9746 20.8457C19.9473 20.9824 19.8789 21.1055 19.7695 21.2148C19.6875 21.3516 19.5781 21.4473 19.4414 21.502C19.3047 21.584 19.168 21.625 19.0312 21.625C13.7812 21.625 9.29688 19.7656 5.57812 16.0469C1.85938 12.3281 0 7.84375 0 2.59375C0 2.45703 0.0273437 2.32031 0.0820312 2.18359C0.164062 2.04688 0.259766 1.9375 0.369141 1.85547C0.505859 1.74609 0.642578 1.67773 0.779297 1.65039L5.04492 0.666016C5.09961 0.638672 5.16797 0.625 5.25 0.625C5.6875 0.625 5.98828 0.830078 6.15234 1.24023L8.12109 5.83398C8.17578 5.94336 8.20312 6.06641 8.20312 6.20312C8.20312 6.50391 8.08008 6.76367 7.83398 6.98242L5.37305 8.99219C6.00195 10.3594 7.02734 11.7539 8.44922 13.1758C9.87109 14.5977 11.2656 15.623 12.6328 16.252L14.6426 13.791C14.8613 13.5449 15.1211 13.4219 15.4219 13.4219C15.5586 13.4219 15.6816 13.4492 15.791 13.5039L20.3848 15.4727Z" fill="#4A4A4A"/>
</svg>
